<?xml version="1.0" standalone="no"?>
<!DOCTYPE svg PUBLIC "-//W3C//DTD SVG 20010904//EN"
 "http://www.w3.org/TR/2001/REC-SVG-20010904/DTD/svg10.dtd">
<svg version="1.0" xmlns="http://www.w3.org/2000/svg"
 width="1080.000000pt" height="1080.000000pt" viewBox="0 0 1080.000000 1080.000000"
 preserveAspectRatio="xMidYMid meet">

<g transform="translate(0.000000,1080.000000) scale(0.100000,-0.100000)"
fill="#000000" stroke="none">
<path d="M290 10590 l0 -140 80 0 c93 0 136 17 146 56 7 29 -9 72 -30 80 -12
5 -11 9 5 25 28 28 25 73 -7 98 -22 17 -41 21 -110 21 l-84 0 0 -140z m158 88
c34 -34 1 -68 -67 -68 l-41 0 0 40 0 40 48 0 c26 0 53 -5 60 -12z m10 -120
c33 -33 -2 -68 -69 -68 l-49 0 0 40 0 40 53 0 c29 0 58 -5 65 -12z"/>
<path d="M570 10550 l0 -100 25 0 c24 0 25 3 25 58 0 65 13 89 50 94 17 2 26
10 28 26 4 27 -22 30 -56 6 -20 -14 -22 -14 -22 0 0 10 -9 16 -25 16 l-25 0 0
-100z"/>
<path d="M740 10572 c0 -96 14 -122 67 -122 20 0 45 7 55 17 17 15 18 15 18 0
0 -10 8 -17 20 -17 19 0 20 7 20 100 l0 100 -25 0 c-24 0 -25 -2 -25 -69 0
-75 -12 -95 -52 -89 -21 3 -23 8 -26 81 -3 74 -4 77 -27 77 -24 0 -25 -2 -25
-78z"/>
<path d="M980 10550 l0 -100 25 0 c24 0 25 3 25 58 0 62 19 102 49 102 31 0
41 -22 41 -92 0 -66 1 -68 25 -68 25 0 25 1 25 80 0 67 -3 83 -20 100 -24 24
-67 26 -98 4 -20 -14 -22 -14 -22 0 0 10 -9 16 -25 16 l-25 0 0 -100z"/>
<path d="M1249 10621 c-21 -22 -29 -39 -29 -66 0 -70 33 -104 100 -104 67 0
100 34 100 104 0 53 -44 95 -100 95 -33 0 -48 -6 -71 -29z m105 -27 c35 -35
12 -104 -34 -104 -19 0 -33 7 -40 19 -24 45 -2 101 40 101 10 0 26 -7 34 -16z"/>
</g>
</svg>
