<?xml version="1.0" standalone="no"?>
<!DOCTYPE svg PUBLIC "-//W3C//DTD SVG 20010904//EN"
 "http://www.w3.org/TR/2001/REC-SVG-20010904/DTD/svg10.dtd">
<svg version="1.0" xmlns="http://www.w3.org/2000/svg"
 width="1042.000000pt" height="295.000000pt" viewBox="0 0 1042.000000 295.000000"
 preserveAspectRatio="xMidYMid meet">

<g transform="translate(0.000000,295.000000) scale(0.100000,-0.100000)"
fill="#000000" stroke="none">
<path d="M1737 2492 c-16 -17 -17 -93 -17 -894 0 -843 1 -876 19 -892 17 -15
61 -17 532 -14 507 3 515 3 549 25 19 11 55 27 80 33 105 28 219 129 245 216
8 28 21 57 29 63 43 36 47 267 6 323 -12 16 -28 48 -36 70 -18 53 -134 164
-184 178 -57 16 -65 25 -38 42 52 35 141 117 161 150 12 20 29 46 39 59 17 25
23 102 20 277 -2 83 -4 95 -25 115 -13 12 -33 38 -45 58 -28 47 -122 124 -169
140 -20 6 -50 21 -68 34 -29 19 -51 23 -186 28 -84 4 -320 7 -524 7 -348 0
-373 -1 -388 -18z m947 -287 c21 -16 57 -50 81 -75 38 -38 44 -52 50 -100 7
-60 -7 -138 -29 -155 -6 -5 -22 -25 -34 -42 -16 -23 -36 -36 -65 -43 -23 -6
-57 -18 -76 -28 -30 -15 -67 -17 -277 -17 -186 0 -246 3 -256 13 -16 16 -29
449 -13 462 21 16 57 18 316 17 l266 -2 37 -30z m3 -746 c21 -6 43 -16 48 -23
6 -6 24 -22 41 -34 41 -28 73 -93 81 -158 4 -41 0 -65 -22 -120 -27 -69 -50
-104 -67 -104 -5 0 -28 -9 -51 -21 -23 -11 -55 -25 -70 -29 -45 -14 -540 -14
-566 -1 -21 11 -21 17 -21 240 0 247 0 245 55 254 61 9 535 5 572 -4z"/>
<path d="M4170 1981 c-48 -5 -75 -14 -104 -34 -21 -15 -44 -27 -50 -27 -15 0
-100 -87 -116 -119 l-13 -25 -18 23 c-14 18 -19 40 -19 90 0 39 -5 72 -12 79
-17 17 -279 17 -296 0 -17 -17 -17 -1249 0 -1266 18 -18 275 -16 308 2 l24 14
1 353 c0 313 2 357 17 379 9 14 22 44 29 68 10 35 25 53 72 89 52 40 66 46
130 54 151 17 212 30 250 55 42 27 41 24 23 153 -10 69 -18 98 -32 108 -19 14
-78 15 -194 4z"/>
<path d="M6797 1981 c-32 -5 -65 -15 -75 -24 -9 -8 -33 -23 -52 -32 -19 -10
-58 -42 -86 -72 -28 -29 -56 -53 -61 -53 -16 0 -23 26 -23 86 0 95 1 94 -163
94 -98 0 -147 -4 -155 -12 -9 -9 -12 -162 -12 -628 0 -585 1 -618 18 -633 15
-14 41 -17 148 -17 91 1 136 5 154 15 l25 13 0 364 0 363 28 69 c29 71 73 122
137 161 19 11 43 26 55 32 11 7 54 13 98 13 76 0 80 -1 123 -37 25 -21 52 -51
60 -68 8 -16 22 -43 32 -60 15 -27 17 -74 19 -435 2 -369 4 -406 20 -417 21
-16 265 -18 294 -3 18 10 19 26 19 478 l0 467 -30 62 c-17 34 -33 76 -37 93
-3 17 -16 38 -29 47 -13 8 -26 24 -30 35 -3 11 -25 29 -47 40 -23 10 -55 28
-72 38 -24 15 -56 20 -165 24 -74 2 -161 1 -193 -3z"/>
<path d="M8183 1982 c-53 -5 -77 -13 -95 -29 -13 -11 -40 -26 -60 -31 -37 -10
-61 -28 -141 -108 -77 -76 -94 -99 -107 -139 -7 -22 -23 -52 -35 -67 -19 -23
-23 -43 -29 -151 -4 -68 -4 -179 0 -246 6 -112 9 -126 35 -164 16 -23 29 -49
29 -58 0 -10 18 -41 40 -70 22 -30 40 -56 40 -59 0 -7 78 -66 124 -94 17 -10
47 -29 66 -42 35 -22 240 -64 317 -64 73 0 288 42 308 61 11 10 36 25 56 33
78 33 175 136 225 239 13 29 32 66 42 82 14 26 17 62 17 260 l0 230 -32 49
c-18 27 -33 58 -33 67 0 20 -37 66 -115 142 -82 81 -88 86 -132 101 -23 8 -55
24 -70 36 -26 18 -46 21 -203 24 -96 2 -207 1 -247 -2z m354 -307 c52 -34 74
-54 82 -78 7 -17 24 -50 39 -71 26 -39 27 -42 27 -190 l-1 -151 -39 -75 c-21
-41 -46 -79 -54 -84 -9 -5 -29 -23 -45 -40 l-29 -31 -146 0 -147 0 -51 45
c-31 27 -67 73 -90 115 l-38 70 0 145 c0 132 2 148 22 180 12 19 32 55 43 80
17 35 36 55 88 88 l66 42 101 0 101 0 71 -45z"/>
<path d="M4628 1969 c-17 -9 -18 -39 -17 -402 0 -216 4 -442 8 -504 8 -102 11
-116 40 -159 17 -26 31 -53 31 -60 0 -6 35 -44 79 -83 62 -56 85 -71 110 -71
17 0 72 -7 123 -16 86 -15 99 -15 183 1 49 9 99 19 110 21 11 2 47 30 79 62
50 49 64 57 88 54 26 -4 28 -8 28 -49 0 -41 2 -45 37 -60 43 -18 254 -15 288
4 19 11 20 17 12 255 -4 133 -5 401 -2 593 4 193 4 362 0 376 -10 41 -43 49
-194 49 -117 0 -141 -3 -152 -17 -11 -13 -15 -100 -19 -434 -5 -415 -5 -417
-27 -441 -141 -146 -116 -133 -260 -133 -120 0 -126 1 -142 24 -9 13 -27 35
-40 49 -13 14 -27 39 -32 56 -5 17 -9 220 -9 451 0 314 -3 424 -12 433 -15 15
-285 16 -310 1z m869 -1141 c-3 -7 -5 -2 -5 12 0 14 2 19 5 13 2 -7 2 -19 0
-25z"/>
</g>
</svg>
